<svg xmlns="http://www.w3.org/2000/svg" viewBox="0 0 512 512">
  <rect width="512" height="512" rx="112" fill="#102a43"/>
  <path d="M112 142c54-18 103-10 144 20v220c-41-30-90-38-144-20V142Zm288 0c-54-18-103-10-144 20v220c41-30 90-38 144-20V142Z" fill="#fff" stroke="#e9a23b" stroke-linejoin="round" stroke-width="18"/>
  <path d="M160 202c26-5 49-2 70 8m-70 42c26-5 49-2 70 8m52-58c21-10 44-13 70-8m-70 66c21-10 44-13 70-8" fill="none" stroke="#146c94" stroke-linecap="round" stroke-width="14"/>
</svg>